<svg xmlns="http://www.w3.org/2000/svg" xmlns:v="https://svgstorm.com"
viewBox = "0 0 500 500"
width="500"
height="500">
<g fill="None" fill-opacity="0.0" stroke="#000000" stroke-opacity="0.00" stroke-width="0.3"><path d="
M 0.00 500.00 
L 500.00 500.00
L 500.00 0.00
L 0.00 0.00
L 0.00 500.00
M 127.00 216.00 
C 156.08 212.81 176.72 257.60 149.75 275.75 C 122.78 293.91 81.89 279.02 50.00 284.00 C 18.11 288.98 1.44 239.19 32.00 226.00
C 36.30 177.51 112.71 169.43 127.00 216.00
M 346.00 240.00 
C 340.83 233.31 328.95 236.14 329.03 245.03 C 329.10 253.91 340.95 256.31 346.00 250.00
C 355.23 259.30 335.85 264.89 327.77 258.23 C 319.69 251.57 319.78 238.23 328.08 232.08 C 336.38 225.93 355.03 230.13 346.00 240.00
M 399.00 229.00 
C 419.63 232.88 412.97 265.64 392.00 261.00 C 371.03 256.36 378.04 225.06 399.00 229.00
M 178.00 260.00 
C 178.00 250.00 178.00 240.00 178.00 230.00
C 190.14 228.77 207.94 229.00 207.98 245.02 C 208.01 261.04 190.11 261.30 178.00 260.00
M 231.00 230.00 
C 234.26 240.24 239.94 249.66 243.00 260.00
C 238.49 260.47 233.39 260.53 233.00 255.00
C 222.37 251.42 219.12 260.99 210.00 260.00
C 212.86 249.62 219.13 240.41 222.00 230.00
C 225.00 230.00 228.00 230.00 231.00 230.00
M 271.00 230.00 
C 273.39 237.44 265.88 236.12 261.00 236.00
C 261.00 244.00 261.00 252.00 261.00 260.00
C 248.13 262.18 256.28 243.75 254.00 236.00
C 251.00 236.00 248.00 236.00 245.00 236.00
C 244.34 224.14 263.03 232.50 271.00 230.00
M 305.00 260.00 
C 295.95 261.01 292.60 251.42 282.00 255.00
C 281.65 260.54 276.47 260.43 272.00 260.00
C 274.26 250.93 278.85 247.60 280.98 237.98 C 283.10 228.35 294.42 227.92 296.31 237.69 C 298.19 247.47 303.74 250.53 305.00 260.00
M 363.00 230.00 
C 363.00 238.00 363.00 246.00 363.00 254.00
C 367.33 254.00 371.67 254.00 376.00 254.00
C 377.72 265.09 361.71 258.01 355.00 260.00
C 355.00 250.00 355.00 240.00 355.00 230.00
C 357.67 230.00 360.33 230.00 363.00 230.00
M 425.00 230.00 
C 426.62 236.08 420.47 254.27 431.01 253.99 C 441.55 253.71 435.30 236.19 437.00 230.00
C 448.66 226.97 446.31 245.16 444.01 253.01 C 441.70 260.86 428.63 264.31 421.77 258.23 C 414.91 252.15 417.17 238.89 417.00 230.00
C 419.67 230.00 422.33 230.00 425.00 230.00
M 452.00 260.00 
C 452.00 250.00 452.00 240.00 452.00 230.00
C 464.22 228.69 481.00 229.28 481.00 245.00 C 481.00 260.72 464.31 261.41 452.00 260.00
M 260.00 276.00 
C 259.77 276.26 255.38 276.20 255.00 276.00
C 252.95 274.94 253.70 268.25 255.00 267.00
C 257.58 266.49 261.36 267.11 262.75 269.25 C 264.15 271.38 262.80 277.17 260.00 276.00
M 276.00 272.00 
C 277.96 272.23 282.01 270.40 282.00 276.00
C 278.69 274.11 275.87 273.51 273.00 276.00
C 272.63 274.46 274.43 273.60 274.00 272.00
C 274.49 270.12 275.91 267.00 278.00 267.00
C 280.20 269.22 277.23 270.50 276.00 272.00
M 296.00 269.00 
C 296.37 271.03 296.49 274.74 295.00 276.00
C 293.79 274.79 293.40 270.86 294.00 269.00
C 292.52 268.97 290.62 269.21 291.00 267.00
C 293.48 267.74 298.82 265.19 299.00 269.00
C 298.00 269.00 297.00 269.00 296.00 269.00
M 313.00 267.00 
C 314.22 270.07 315.35 273.09 317.00 276.00
C 313.22 273.33 310.66 274.60 307.00 276.00
C 309.23 273.22 309.32 267.87 313.00 267.00
M 334.00 272.00 
C 338.29 275.30 329.83 276.36 328.00 276.00
C 326.68 274.73 326.37 269.96 327.00 268.00
C 328.97 264.55 335.37 267.70 334.00 272.00
M 350.00 267.00 
C 350.55 270.26 352.76 272.95 354.00 276.00
C 350.50 274.57 347.76 273.38 344.00 276.00
C 345.83 273.09 345.71 267.43 350.00 267.00
M 370.00 268.00 
C 365.10 270.29 365.01 268.65 369.22 271.78 C 373.44 274.90 365.23 278.92 363.00 276.00
C 362.49 271.83 367.08 276.99 368.00 274.00
C 360.63 273.49 363.01 263.43 370.00 268.00
M 382.00 269.00 
C 383.06 271.15 384.09 271.34 387.00 271.00
C 383.72 273.76 379.72 275.16 388.00 275.00
C 382.69 278.97 379.29 273.42 381.00 268.00
C 382.08 266.10 385.17 267.41 387.00 267.00
C 387.52 269.92 383.67 268.73 382.00 269.00 Z"/>
</g>
<g fill="None" fill-opacity="0.0" stroke="#51ADE5" stroke-opacity="0.88" stroke-width="0.3"><path d="
M 127.00 216.00 
C 112.71 169.43 36.30 177.51 32.00 226.00
C 1.44 239.19 18.11 288.98 50.00 284.00 C 81.89 279.02 122.78 293.91 149.75 275.75 C 176.72 257.60 156.08 212.81 127.00 216.00
M 125.00 224.00 
C 143.76 221.59 163.22 237.16 156.22 257.22 C 149.22 277.28 125.72 277.91 106.00 276.00 C 86.28 274.09 58.82 280.13 40.31 272.69 C 21.79 265.26 25.96 236.24 44.00 232.00
C 43.35 186.49 116.39 179.04 125.00 224.00 Z"/>
</g>
<g fill="None" fill-opacity="0.0" stroke="#000000" stroke-opacity="0.00" stroke-width="0.3"><path d="
M 125.00 224.00 
C 116.39 179.04 43.35 186.49 44.00 232.00
C 25.96 236.24 21.79 265.26 40.31 272.69 C 58.82 280.13 86.28 274.09 106.00 276.00 C 125.72 277.91 149.22 277.28 156.22 257.22 C 163.22 237.16 143.76 221.59 125.00 224.00
M 112.00 258.00 
C 104.35 250.82 106.24 240.17 105.00 231.00 C 103.76 221.83 88.92 219.29 95.00 207.00
C 100.98 212.05 111.89 215.17 114.77 224.23 C 117.65 233.29 112.06 249.22 112.00 258.00
M 105.00 262.00 
C 85.07 257.45 97.29 225.49 73.00 229.00
C 72.52 223.79 70.26 219.05 69.00 214.00
C 78.60 216.87 90.97 218.60 98.70 226.30 C 106.43 234.01 101.73 252.21 105.00 262.00
M 97.00 268.00 
C 88.12 268.41 79.33 264.39 70.00 267.00 C 60.67 269.61 57.63 264.00 55.02 255.98 C 52.42 247.95 48.08 243.93 46.00 236.00
C 55.92 235.83 75.81 228.13 83.90 236.10 C 91.99 244.07 91.67 258.64 97.00 268.00 Z"/>
</g>
<g fill="None" fill-opacity="0.0" stroke="#51ACE4" stroke-opacity="0.86" stroke-width="0.3"><path d="
M 112.00 258.00 
C 112.06 249.22 117.65 233.29 114.77 224.23 C 111.89 215.17 100.98 212.05 95.00 207.00
C 88.92 219.29 103.76 221.83 105.00 231.00 C 106.24 240.17 104.35 250.82 112.00 258.00 Z"/>
</g>
<g fill="None" fill-opacity="0.0" stroke="#50ADE5" stroke-opacity="0.89" stroke-width="0.3"><path d="
M 105.00 262.00 
C 101.73 252.21 106.43 234.01 98.70 226.30 C 90.97 218.60 78.60 216.87 69.00 214.00
C 70.26 219.05 72.52 223.79 73.00 229.00
C 97.29 225.49 85.07 257.45 105.00 262.00 Z"/>
</g>
<g fill="None" fill-opacity="0.0" stroke="#2B3792" stroke-opacity="0.83" stroke-width="0.3"><path d="
M 346.00 240.00 
C 355.03 230.13 336.38 225.93 328.08 232.08 C 319.78 238.23 319.69 251.57 327.77 258.23 C 335.85 264.89 355.23 259.30 346.00 250.00
C 340.95 256.31 329.10 253.91 329.03 245.03 C 328.95 236.14 340.83 233.31 346.00 240.00 Z"/>
</g>
<g fill="None" fill-opacity="0.0" stroke="#2C3892" stroke-opacity="0.84" stroke-width="0.3"><path d="
M 399.00 229.00 
C 378.04 225.06 371.03 256.36 392.00 261.00 C 412.97 265.64 419.63 232.88 399.00 229.00
M 398.00 236.00 
C 408.14 238.57 404.01 256.83 393.33 253.67 C 382.64 250.51 387.20 233.26 398.00 236.00 Z"/>
</g>
<g fill="None" fill-opacity="0.0" stroke="#2B3792" stroke-opacity="0.87" stroke-width="0.3"><path d="
M 178.00 260.00 
C 190.11 261.30 208.01 261.04 207.98 245.02 C 207.94 229.00 190.14 228.77 178.00 230.00
C 178.00 240.00 178.00 250.00 178.00 260.00
M 186.00 254.00 
C 186.00 248.00 186.00 242.00 186.00 236.00
C 203.24 231.06 203.52 259.15 186.00 254.00 Z"/>
</g>
<g fill="None" fill-opacity="0.0" stroke="#2B3792" stroke-opacity="0.85" stroke-width="0.3"><path d="
M 231.00 230.00 
C 228.00 230.00 225.00 230.00 222.00 230.00
C 219.13 240.41 212.86 249.62 210.00 260.00
C 219.12 260.99 222.37 251.42 233.00 255.00
C 233.39 260.53 238.49 260.47 243.00 260.00
C 239.94 249.66 234.26 240.24 231.00 230.00
M 227.00 239.00 
C 226.98 242.29 229.12 244.93 230.00 248.00
C 221.49 250.72 222.93 242.93 227.00 239.00 Z"/>
</g>
<g fill="None" fill-opacity="0.0" stroke="#2C3892" stroke-opacity="0.95" stroke-width="0.3"><path d="
M 271.00 230.00 
C 263.03 232.50 244.34 224.14 245.00 236.00
C 248.00 236.00 251.00 236.00 254.00 236.00
C 256.28 243.75 248.13 262.18 261.00 260.00
C 261.00 252.00 261.00 244.00 261.00 236.00
C 265.88 236.12 273.39 237.44 271.00 230.00 Z"/>
</g>
<g fill="None" fill-opacity="0.0" stroke="#2B3792" stroke-opacity="0.85" stroke-width="0.3"><path d="
M 305.00 260.00 
C 303.74 250.53 298.19 247.47 296.31 237.69 C 294.42 227.92 283.10 228.35 280.98 237.98 C 278.85 247.60 274.26 250.93 272.00 260.00
C 276.47 260.43 281.65 260.54 282.00 255.00
C 292.60 251.42 295.95 261.01 305.00 260.00
M 289.00 239.00 
C 289.57 242.12 291.68 244.76 292.00 248.00
C 283.00 250.51 285.81 243.30 289.00 239.00 Z"/>
</g>
<g fill="None" fill-opacity="0.0" stroke="#2C3892" stroke-opacity="0.87" stroke-width="0.3"><path d="
M 363.00 230.00 
C 360.33 230.00 357.67 230.00 355.00 230.00
C 355.00 240.00 355.00 250.00 355.00 260.00
C 361.71 258.01 377.72 265.09 376.00 254.00
C 371.67 254.00 367.33 254.00 363.00 254.00
C 363.00 246.00 363.00 238.00 363.00 230.00 Z"/>
</g>
<g fill="None" fill-opacity="0.0" stroke="#2B3792" stroke-opacity="0.84" stroke-width="0.3"><path d="
M 425.00 230.00 
C 422.33 230.00 419.67 230.00 417.00 230.00
C 417.17 238.89 414.91 252.15 421.77 258.23 C 428.63 264.31 441.70 260.86 444.01 253.01 C 446.31 245.16 448.66 226.97 437.00 230.00
C 435.30 236.19 441.55 253.71 431.01 253.99 C 420.47 254.27 426.62 236.08 425.00 230.00 Z"/>
</g>
<g fill="None" fill-opacity="0.0" stroke="#2B3892" stroke-opacity="0.87" stroke-width="0.3"><path d="
M 452.00 260.00 
C 464.31 261.41 481.00 260.72 481.00 245.00 C 481.00 229.28 464.22 228.69 452.00 230.00
C 452.00 240.00 452.00 250.00 452.00 260.00
M 460.00 254.00 
C 460.00 248.00 460.00 242.00 460.00 236.00
C 476.40 231.89 476.70 258.64 460.00 254.00 Z"/>
</g>
<g fill="None" fill-opacity="0.0" stroke="#51ACE4" stroke-opacity="0.94" stroke-width="0.3"><path d="
M 97.00 268.00 
C 91.67 258.64 91.99 244.07 83.90 236.10 C 75.81 228.13 55.92 235.83 46.00 236.00
C 48.08 243.93 52.42 247.95 55.02 255.98 C 57.63 264.00 60.67 269.61 70.00 267.00 C 79.33 264.39 88.12 268.41 97.00 268.00 Z"/>
</g>
<g fill="None" fill-opacity="0.0" stroke="#000000" stroke-opacity="0.00" stroke-width="0.3"><path d="
M 186.00 254.00 
C 203.52 259.15 203.24 231.06 186.00 236.00
C 186.00 242.00 186.00 248.00 186.00 254.00 Z"/>
</g>
<g fill="None" fill-opacity="0.0" stroke="#000000" stroke-opacity="0.00" stroke-width="0.3"><path d="
M 398.00 236.00 
C 387.20 233.26 382.64 250.51 393.33 253.67 C 404.01 256.83 408.14 238.57 398.00 236.00 Z"/>
</g>
<g fill="None" fill-opacity="0.0" stroke="#000000" stroke-opacity="0.00" stroke-width="0.3"><path d="
M 460.00 254.00 
C 476.70 258.64 476.40 231.89 460.00 236.00
C 460.00 242.00 460.00 248.00 460.00 254.00 Z"/>
</g>
<g fill="None" fill-opacity="0.0" stroke="#000000" stroke-opacity="0.00" stroke-width="0.3"><path d="
M 227.00 239.00 
C 222.93 242.93 221.49 250.72 230.00 248.00
C 229.12 244.93 226.98 242.29 227.00 239.00 Z"/>
</g>
<g fill="None" fill-opacity="0.0" stroke="#000000" stroke-opacity="0.00" stroke-width="0.3"><path d="
M 289.00 239.00 
C 285.81 243.30 283.00 250.51 292.00 248.00
C 291.68 244.76 289.57 242.12 289.00 239.00 Z"/>
</g>
<g fill="None" fill-opacity="0.0" stroke="#2D3691" stroke-opacity="0.12" stroke-width="0.3"><path d="
M 255.00 276.00 
C 255.00 273.33 255.00 270.67 255.00 268.00
C 255.00 267.50 255.00 267.00 255.00 267.00
C 253.70 268.25 252.95 274.94 255.00 276.00 Z"/>
</g>
<g fill="None" fill-opacity="0.0" stroke="#2D3992" stroke-opacity="0.40" stroke-width="0.3"><path d="
M 255.00 268.00 
C 255.12 268.26 256.01 268.67 256.00 269.00
C 260.02 269.28 261.95 270.11 260.00 274.00
C 259.80 274.40 260.25 275.72 260.00 276.00
C 262.80 277.17 264.15 271.38 262.75 269.25 C 261.36 267.11 257.58 266.49 255.00 267.00
C 255.00 267.00 255.00 267.50 255.00 268.00 Z"/>
</g>
<g fill="None" fill-opacity="0.0" stroke="#2C3691" stroke-opacity="0.36" stroke-width="0.3"><path d="
M 274.00 272.00 
C 275.18 270.68 275.33 271.92 276.00 272.00
C 277.23 270.50 280.20 269.22 278.00 267.00
C 275.91 267.00 274.49 270.12 274.00 272.00 Z"/>
</g>
<g fill="None" fill-opacity="0.0" stroke="#2D3891" stroke-opacity="0.34" stroke-width="0.3"><path d="
M 294.00 269.00 
C 294.47 267.55 294.57 268.70 295.00 269.00
C 295.34 269.24 296.00 269.00 296.00 269.00
C 297.00 269.00 298.00 269.00 299.00 269.00
C 298.82 265.19 293.48 267.74 291.00 267.00
C 290.62 269.21 292.52 268.97 294.00 269.00 Z"/>
</g>
<g fill="None" fill-opacity="0.0" stroke="#252F7E" stroke-opacity="0.42" stroke-width="0.3"><path d="
M 313.00 267.00 
C 309.32 267.87 309.23 273.22 307.00 276.00
C 310.66 274.60 313.22 273.33 317.00 276.00
C 315.35 273.09 314.22 270.07 313.00 267.00 Z"/>
</g>
<g fill="None" fill-opacity="0.0" stroke="#2C3792" stroke-opacity="0.40" stroke-width="0.3"><path d="
M 327.00 268.00 
C 326.98 268.05 327.91 268.65 328.00 269.00
C 329.30 269.20 330.69 268.85 332.00 269.00
C 332.63 271.53 329.47 270.90 328.00 271.00
C 328.00 271.50 328.00 272.50 328.00 273.00
C 328.67 272.25 332.03 273.44 333.00 273.00
C 333.16 272.66 333.92 272.25 334.00 272.00
C 335.37 267.70 328.97 264.55 327.00 268.00 Z"/>
</g>
<g fill="None" fill-opacity="0.0" stroke="#263186" stroke-opacity="0.40" stroke-width="0.3"><path d="
M 350.00 267.00 
C 345.71 267.43 345.83 273.09 344.00 276.00
C 347.76 273.38 350.50 274.57 354.00 276.00
C 352.76 272.95 350.55 270.26 350.00 267.00 Z"/>
</g>
<g fill="None" fill-opacity="0.0" stroke="#2A3793" stroke-opacity="0.37" stroke-width="0.3"><path d="
M 370.00 268.00 
C 363.01 263.43 360.63 273.49 368.00 274.00
C 367.08 276.99 362.49 271.83 363.00 276.00
C 365.23 278.92 373.44 274.90 369.22 271.78 C 365.01 268.65 365.10 270.29 370.00 268.00 Z"/>
</g>
<g fill="None" fill-opacity="0.0" stroke="#2C3891" stroke-opacity="0.39" stroke-width="0.3"><path d="
M 381.00 268.00 
C 380.98 268.05 381.84 268.66 382.00 269.00
C 383.67 268.73 387.52 269.92 387.00 267.00
C 385.17 267.41 382.08 266.10 381.00 268.00 Z"/>
</g>
<g fill="None" fill-opacity="0.0" stroke="#2B3690" stroke-opacity="0.73" stroke-width="0.3"><path d="
M 255.00 276.00 
C 255.38 276.20 259.77 276.26 260.00 276.00
C 260.25 275.72 259.80 274.40 260.00 274.00
C 258.72 274.27 257.57 275.61 256.00 275.00
C 256.00 273.00 256.00 271.00 256.00 269.00
C 256.01 268.67 255.12 268.26 255.00 268.00
C 255.00 270.67 255.00 273.33 255.00 276.00 Z"/>
</g>
<g fill="None" fill-opacity="0.0" stroke="#2C3792" stroke-opacity="0.76" stroke-width="0.3"><path d="
M 294.00 269.00 
C 293.40 270.86 293.79 274.79 295.00 276.00
C 294.47 273.84 295.70 271.10 295.00 269.00
C 294.57 268.70 294.47 267.55 294.00 269.00 Z"/>
</g>
<g fill="None" fill-opacity="0.0" stroke="#2C3792" stroke-opacity="0.88" stroke-width="0.3"><path d="
M 328.00 276.00 
C 327.91 275.98 328.00 275.00 328.00 275.00
C 328.00 274.50 328.00 273.50 328.00 273.00
C 328.00 272.50 328.00 271.50 328.00 271.00
C 328.00 270.50 328.12 269.47 328.00 269.00
C 327.91 268.65 326.98 268.05 327.00 268.00
C 326.37 269.96 326.68 274.73 328.00 276.00 Z"/>
</g>
<g fill="None" fill-opacity="0.0" stroke="#2C3792" stroke-opacity="0.59" stroke-width="0.3"><path d="
M 382.00 269.00 
C 381.84 268.66 380.98 268.05 381.00 268.00
C 379.29 273.42 382.69 278.97 388.00 275.00
C 379.72 275.16 383.72 273.76 387.00 271.00
C 384.09 271.34 383.06 271.15 382.00 269.00 Z"/>
</g>
<g fill="None" fill-opacity="0.0" stroke="#000000" stroke-opacity="0.00" stroke-width="0.3"><path d="
M 260.00 274.00 
C 261.95 270.11 260.02 269.28 256.00 269.00
C 256.00 271.00 256.00 273.00 256.00 275.00
C 257.57 275.61 258.72 274.27 260.00 274.00 Z"/>
</g>
<g fill="None" fill-opacity="0.0" stroke="#293691" stroke-opacity="0.15" stroke-width="0.3"><path d="
M 295.00 276.00 
C 296.49 274.74 296.37 271.03 296.00 269.00
C 296.00 269.00 295.34 269.24 295.00 269.00
C 295.70 271.10 294.47 273.84 295.00 276.00 Z"/>
</g>
<g fill="None" fill-opacity="0.0" stroke="#000000" stroke-opacity="0.00" stroke-width="0.3"><path d="
M 328.00 271.00 
C 329.47 270.90 332.63 271.53 332.00 269.00
C 330.69 268.85 329.30 269.20 328.00 269.00
C 328.12 269.47 328.00 270.50 328.00 271.00 Z"/>
</g>
<g fill="None" fill-opacity="0.0" stroke="#2D3891" stroke-opacity="0.51" stroke-width="0.3"><path d="
M 274.00 272.00 
C 274.43 273.60 272.63 274.46 273.00 276.00
C 275.87 273.51 278.69 274.11 282.00 276.00
C 282.01 270.40 277.96 272.23 276.00 272.00
C 275.33 271.92 275.18 270.68 274.00 272.00 Z"/>
</g>
<g fill="None" fill-opacity="0.0" stroke="#2D3891" stroke-opacity="0.55" stroke-width="0.3"><path d="
M 333.00 273.00 
C 331.94 275.17 330.24 275.10 328.00 275.00
C 328.00 275.00 327.91 275.98 328.00 276.00
C 329.83 276.36 338.29 275.30 334.00 272.00
C 333.92 272.25 333.16 272.66 333.00 273.00 Z"/>
</g>
<g fill="None" fill-opacity="0.0" stroke="#000000" stroke-opacity="0.00" stroke-width="0.3"><path d="
M 328.00 275.00 
C 330.24 275.10 331.94 275.17 333.00 273.00
C 332.03 273.44 328.67 272.25 328.00 273.00
C 328.00 273.50 328.00 274.50 328.00 275.00 Z"/>
</g>
<g fill="#000000" fill-opacity="0.00" stroke="None">
<path d="
M 0.00 500.00 
L 500.00 500.00
L 500.00 0.00
L 0.00 0.00
L 0.00 500.00
M 127.00 216.00 
C 156.08 212.81 176.72 257.60 149.75 275.75 C 122.78 293.91 81.89 279.02 50.00 284.00 C 18.11 288.98 1.44 239.19 32.00 226.00
C 36.30 177.51 112.71 169.43 127.00 216.00
M 346.00 240.00 
C 340.83 233.31 328.95 236.14 329.03 245.03 C 329.10 253.91 340.95 256.31 346.00 250.00
C 355.23 259.30 335.85 264.89 327.77 258.23 C 319.69 251.57 319.78 238.23 328.08 232.08 C 336.38 225.93 355.03 230.13 346.00 240.00
M 399.00 229.00 
C 419.63 232.88 412.97 265.64 392.00 261.00 C 371.03 256.36 378.04 225.06 399.00 229.00
M 178.00 260.00 
C 178.00 250.00 178.00 240.00 178.00 230.00
C 190.14 228.77 207.94 229.00 207.98 245.02 C 208.01 261.04 190.11 261.30 178.00 260.00
M 231.00 230.00 
C 234.26 240.24 239.94 249.66 243.00 260.00
C 238.49 260.47 233.39 260.53 233.00 255.00
C 222.37 251.42 219.12 260.99 210.00 260.00
C 212.86 249.62 219.13 240.41 222.00 230.00
C 225.00 230.00 228.00 230.00 231.00 230.00
M 271.00 230.00 
C 273.39 237.44 265.88 236.12 261.00 236.00
C 261.00 244.00 261.00 252.00 261.00 260.00
C 248.13 262.18 256.28 243.75 254.00 236.00
C 251.00 236.00 248.00 236.00 245.00 236.00
C 244.34 224.14 263.03 232.50 271.00 230.00
M 305.00 260.00 
C 295.95 261.01 292.60 251.42 282.00 255.00
C 281.65 260.54 276.47 260.43 272.00 260.00
C 274.26 250.93 278.85 247.60 280.98 237.98 C 283.10 228.35 294.42 227.92 296.31 237.69 C 298.19 247.47 303.74 250.53 305.00 260.00
M 363.00 230.00 
C 363.00 238.00 363.00 246.00 363.00 254.00
C 367.33 254.00 371.67 254.00 376.00 254.00
C 377.72 265.09 361.71 258.01 355.00 260.00
C 355.00 250.00 355.00 240.00 355.00 230.00
C 357.67 230.00 360.33 230.00 363.00 230.00
M 425.00 230.00 
C 426.62 236.08 420.47 254.27 431.01 253.99 C 441.55 253.71 435.30 236.19 437.00 230.00
C 448.66 226.97 446.31 245.16 444.01 253.01 C 441.70 260.86 428.63 264.31 421.77 258.23 C 414.91 252.15 417.17 238.89 417.00 230.00
C 419.67 230.00 422.33 230.00 425.00 230.00
M 452.00 260.00 
C 452.00 250.00 452.00 240.00 452.00 230.00
C 464.22 228.69 481.00 229.28 481.00 245.00 C 481.00 260.72 464.31 261.41 452.00 260.00
M 260.00 276.00 
C 259.77 276.26 255.38 276.20 255.00 276.00
C 252.95 274.94 253.70 268.25 255.00 267.00
C 257.58 266.49 261.36 267.11 262.75 269.25 C 264.15 271.38 262.80 277.17 260.00 276.00
M 276.00 272.00 
C 277.96 272.23 282.01 270.40 282.00 276.00
C 278.69 274.11 275.87 273.51 273.00 276.00
C 272.63 274.46 274.43 273.60 274.00 272.00
C 274.49 270.12 275.91 267.00 278.00 267.00
C 280.20 269.22 277.23 270.50 276.00 272.00
M 296.00 269.00 
C 296.37 271.03 296.49 274.74 295.00 276.00
C 293.79 274.79 293.40 270.86 294.00 269.00
C 292.52 268.97 290.62 269.21 291.00 267.00
C 293.48 267.74 298.82 265.19 299.00 269.00
C 298.00 269.00 297.00 269.00 296.00 269.00
M 313.00 267.00 
C 314.22 270.07 315.35 273.09 317.00 276.00
C 313.22 273.33 310.66 274.60 307.00 276.00
C 309.23 273.22 309.32 267.87 313.00 267.00
M 334.00 272.00 
C 338.29 275.30 329.83 276.36 328.00 276.00
C 326.68 274.73 326.37 269.96 327.00 268.00
C 328.97 264.55 335.37 267.70 334.00 272.00
M 350.00 267.00 
C 350.55 270.26 352.76 272.95 354.00 276.00
C 350.50 274.57 347.76 273.38 344.00 276.00
C 345.83 273.09 345.71 267.43 350.00 267.00
M 370.00 268.00 
C 365.10 270.29 365.01 268.65 369.22 271.78 C 373.44 274.90 365.23 278.92 363.00 276.00
C 362.49 271.83 367.08 276.99 368.00 274.00
C 360.63 273.49 363.01 263.43 370.00 268.00
M 382.00 269.00 
C 383.06 271.15 384.09 271.34 387.00 271.00
C 383.72 273.76 379.72 275.16 388.00 275.00
C 382.69 278.97 379.29 273.42 381.00 268.00
C 382.08 266.10 385.17 267.41 387.00 267.00
C 387.52 269.92 383.67 268.73 382.00 269.00 Z"/>
</g>
<g fill="#51ADE5" fill-opacity="0.88" stroke="None">
<path d="
M 127.00 216.00 
C 112.71 169.43 36.30 177.51 32.00 226.00
C 1.44 239.19 18.11 288.98 50.00 284.00 C 81.89 279.02 122.78 293.91 149.75 275.75 C 176.72 257.60 156.08 212.81 127.00 216.00
M 125.00 224.00 
C 143.76 221.59 163.22 237.16 156.22 257.22 C 149.22 277.28 125.72 277.91 106.00 276.00 C 86.28 274.09 58.82 280.13 40.31 272.69 C 21.79 265.26 25.96 236.24 44.00 232.00
C 43.35 186.49 116.39 179.04 125.00 224.00 Z"/>
</g>
<g fill="#000000" fill-opacity="0.00" stroke="None">
<path d="
M 125.00 224.00 
C 116.39 179.04 43.35 186.49 44.00 232.00
C 25.96 236.24 21.79 265.26 40.31 272.69 C 58.82 280.13 86.28 274.09 106.00 276.00 C 125.72 277.91 149.22 277.28 156.22 257.22 C 163.22 237.16 143.76 221.59 125.00 224.00
M 112.00 258.00 
C 104.35 250.82 106.24 240.17 105.00 231.00 C 103.76 221.83 88.92 219.29 95.00 207.00
C 100.98 212.05 111.89 215.17 114.77 224.23 C 117.65 233.29 112.06 249.22 112.00 258.00
M 105.00 262.00 
C 85.07 257.45 97.29 225.49 73.00 229.00
C 72.52 223.79 70.26 219.05 69.00 214.00
C 78.60 216.87 90.97 218.60 98.70 226.30 C 106.43 234.01 101.73 252.21 105.00 262.00
M 97.00 268.00 
C 88.12 268.41 79.33 264.39 70.00 267.00 C 60.67 269.61 57.63 264.00 55.02 255.98 C 52.42 247.95 48.08 243.93 46.00 236.00
C 55.92 235.83 75.81 228.13 83.90 236.10 C 91.99 244.07 91.67 258.64 97.00 268.00 Z"/>
</g>
<g fill="#51ACE4" fill-opacity="0.86" stroke="None">
<path d="
M 112.00 258.00 
C 112.06 249.22 117.65 233.29 114.77 224.23 C 111.89 215.17 100.98 212.05 95.00 207.00
C 88.92 219.29 103.76 221.83 105.00 231.00 C 106.24 240.17 104.35 250.82 112.00 258.00 Z"/>
</g>
<g fill="#50ADE5" fill-opacity="0.89" stroke="None">
<path d="
M 105.00 262.00 
C 101.73 252.21 106.43 234.01 98.70 226.30 C 90.97 218.60 78.60 216.87 69.00 214.00
C 70.26 219.05 72.52 223.79 73.00 229.00
C 97.29 225.49 85.07 257.45 105.00 262.00 Z"/>
</g>
<g fill="#2B3792" fill-opacity="0.83" stroke="None">
<path d="
M 346.00 240.00 
C 355.03 230.13 336.38 225.93 328.08 232.08 C 319.78 238.23 319.69 251.57 327.77 258.23 C 335.85 264.89 355.23 259.30 346.00 250.00
C 340.95 256.31 329.10 253.91 329.03 245.03 C 328.95 236.14 340.83 233.31 346.00 240.00 Z"/>
</g>
<g fill="#2C3892" fill-opacity="0.84" stroke="None">
<path d="
M 399.00 229.00 
C 378.04 225.06 371.03 256.36 392.00 261.00 C 412.97 265.64 419.63 232.88 399.00 229.00
M 398.00 236.00 
C 408.14 238.57 404.01 256.83 393.33 253.67 C 382.64 250.51 387.20 233.26 398.00 236.00 Z"/>
</g>
<g fill="#2B3792" fill-opacity="0.87" stroke="None">
<path d="
M 178.00 260.00 
C 190.11 261.30 208.01 261.04 207.98 245.02 C 207.94 229.00 190.14 228.77 178.00 230.00
C 178.00 240.00 178.00 250.00 178.00 260.00
M 186.00 254.00 
C 186.00 248.00 186.00 242.00 186.00 236.00
C 203.24 231.06 203.52 259.15 186.00 254.00 Z"/>
</g>
<g fill="#2B3792" fill-opacity="0.85" stroke="None">
<path d="
M 231.00 230.00 
C 228.00 230.00 225.00 230.00 222.00 230.00
C 219.13 240.41 212.86 249.62 210.00 260.00
C 219.12 260.99 222.37 251.42 233.00 255.00
C 233.39 260.53 238.49 260.47 243.00 260.00
C 239.94 249.66 234.26 240.24 231.00 230.00
M 227.00 239.00 
C 226.98 242.29 229.12 244.93 230.00 248.00
C 221.49 250.72 222.93 242.93 227.00 239.00 Z"/>
</g>
<g fill="#2C3892" fill-opacity="0.95" stroke="None">
<path d="
M 271.00 230.00 
C 263.03 232.50 244.34 224.14 245.00 236.00
C 248.00 236.00 251.00 236.00 254.00 236.00
C 256.28 243.75 248.13 262.18 261.00 260.00
C 261.00 252.00 261.00 244.00 261.00 236.00
C 265.88 236.12 273.39 237.44 271.00 230.00 Z"/>
</g>
<g fill="#2B3792" fill-opacity="0.85" stroke="None">
<path d="
M 305.00 260.00 
C 303.74 250.53 298.19 247.47 296.31 237.69 C 294.42 227.92 283.10 228.35 280.98 237.98 C 278.85 247.60 274.26 250.93 272.00 260.00
C 276.47 260.43 281.65 260.54 282.00 255.00
C 292.60 251.42 295.95 261.01 305.00 260.00
M 289.00 239.00 
C 289.57 242.12 291.68 244.76 292.00 248.00
C 283.00 250.51 285.81 243.30 289.00 239.00 Z"/>
</g>
<g fill="#2C3892" fill-opacity="0.87" stroke="None">
<path d="
M 363.00 230.00 
C 360.33 230.00 357.67 230.00 355.00 230.00
C 355.00 240.00 355.00 250.00 355.00 260.00
C 361.71 258.01 377.72 265.09 376.00 254.00
C 371.67 254.00 367.33 254.00 363.00 254.00
C 363.00 246.00 363.00 238.00 363.00 230.00 Z"/>
</g>
<g fill="#2B3792" fill-opacity="0.84" stroke="None">
<path d="
M 425.00 230.00 
C 422.33 230.00 419.67 230.00 417.00 230.00
C 417.17 238.89 414.91 252.15 421.77 258.23 C 428.63 264.31 441.70 260.86 444.01 253.01 C 446.31 245.16 448.66 226.97 437.00 230.00
C 435.30 236.19 441.55 253.71 431.01 253.99 C 420.47 254.27 426.62 236.08 425.00 230.00 Z"/>
</g>
<g fill="#2B3892" fill-opacity="0.87" stroke="None">
<path d="
M 452.00 260.00 
C 464.31 261.41 481.00 260.72 481.00 245.00 C 481.00 229.28 464.22 228.69 452.00 230.00
C 452.00 240.00 452.00 250.00 452.00 260.00
M 460.00 254.00 
C 460.00 248.00 460.00 242.00 460.00 236.00
C 476.40 231.89 476.70 258.64 460.00 254.00 Z"/>
</g>
<g fill="#51ACE4" fill-opacity="0.94" stroke="None">
<path d="
M 97.00 268.00 
C 91.67 258.64 91.99 244.07 83.90 236.10 C 75.81 228.13 55.92 235.83 46.00 236.00
C 48.08 243.93 52.42 247.95 55.02 255.98 C 57.63 264.00 60.67 269.61 70.00 267.00 C 79.33 264.39 88.12 268.41 97.00 268.00 Z"/>
</g>
<g fill="#000000" fill-opacity="0.00" stroke="None">
<path d="
M 186.00 254.00 
C 203.52 259.15 203.24 231.06 186.00 236.00
C 186.00 242.00 186.00 248.00 186.00 254.00 Z"/>
</g>
<g fill="#000000" fill-opacity="0.00" stroke="None">
<path d="
M 398.00 236.00 
C 387.20 233.26 382.64 250.51 393.33 253.67 C 404.01 256.83 408.14 238.57 398.00 236.00 Z"/>
</g>
<g fill="#000000" fill-opacity="0.00" stroke="None">
<path d="
M 460.00 254.00 
C 476.70 258.64 476.40 231.89 460.00 236.00
C 460.00 242.00 460.00 248.00 460.00 254.00 Z"/>
</g>
<g fill="#000000" fill-opacity="0.00" stroke="None">
<path d="
M 227.00 239.00 
C 222.93 242.93 221.49 250.72 230.00 248.00
C 229.12 244.93 226.98 242.29 227.00 239.00 Z"/>
</g>
<g fill="#000000" fill-opacity="0.00" stroke="None">
<path d="
M 289.00 239.00 
C 285.81 243.30 283.00 250.51 292.00 248.00
C 291.68 244.76 289.57 242.12 289.00 239.00 Z"/>
</g>
<g fill="#2D3691" fill-opacity="0.12" stroke="None">
<path d="
M 255.00 276.00 
C 255.00 273.33 255.00 270.67 255.00 268.00
C 255.00 267.50 255.00 267.00 255.00 267.00
C 253.70 268.25 252.95 274.94 255.00 276.00 Z"/>
</g>
<g fill="#2D3992" fill-opacity="0.40" stroke="None">
<path d="
M 255.00 268.00 
C 255.12 268.26 256.01 268.67 256.00 269.00
C 260.02 269.28 261.95 270.11 260.00 274.00
C 259.80 274.40 260.25 275.72 260.00 276.00
C 262.80 277.17 264.15 271.38 262.75 269.25 C 261.36 267.11 257.58 266.49 255.00 267.00
C 255.00 267.00 255.00 267.50 255.00 268.00 Z"/>
</g>
<g fill="#2C3691" fill-opacity="0.36" stroke="None">
<path d="
M 274.00 272.00 
C 275.18 270.68 275.33 271.92 276.00 272.00
C 277.23 270.50 280.20 269.22 278.00 267.00
C 275.91 267.00 274.49 270.12 274.00 272.00 Z"/>
</g>
<g fill="#2D3891" fill-opacity="0.34" stroke="None">
<path d="
M 294.00 269.00 
C 294.47 267.55 294.57 268.70 295.00 269.00
C 295.34 269.24 296.00 269.00 296.00 269.00
C 297.00 269.00 298.00 269.00 299.00 269.00
C 298.82 265.19 293.48 267.74 291.00 267.00
C 290.62 269.21 292.52 268.97 294.00 269.00 Z"/>
</g>
<g fill="#252F7E" fill-opacity="0.42" stroke="None">
<path d="
M 313.00 267.00 
C 309.32 267.87 309.23 273.22 307.00 276.00
C 310.66 274.60 313.22 273.33 317.00 276.00
C 315.35 273.09 314.22 270.07 313.00 267.00 Z"/>
</g>
<g fill="#2C3792" fill-opacity="0.40" stroke="None">
<path d="
M 327.00 268.00 
C 326.98 268.05 327.91 268.65 328.00 269.00
C 329.30 269.20 330.69 268.85 332.00 269.00
C 332.63 271.53 329.47 270.90 328.00 271.00
C 328.00 271.50 328.00 272.50 328.00 273.00
C 328.67 272.25 332.03 273.44 333.00 273.00
C 333.16 272.66 333.92 272.25 334.00 272.00
C 335.37 267.70 328.97 264.55 327.00 268.00 Z"/>
</g>
<g fill="#263186" fill-opacity="0.40" stroke="None">
<path d="
M 350.00 267.00 
C 345.71 267.43 345.83 273.09 344.00 276.00
C 347.76 273.38 350.50 274.57 354.00 276.00
C 352.76 272.95 350.55 270.26 350.00 267.00 Z"/>
</g>
<g fill="#2A3793" fill-opacity="0.37" stroke="None">
<path d="
M 370.00 268.00 
C 363.01 263.43 360.63 273.49 368.00 274.00
C 367.08 276.99 362.49 271.83 363.00 276.00
C 365.23 278.92 373.44 274.90 369.22 271.78 C 365.01 268.65 365.10 270.29 370.00 268.00 Z"/>
</g>
<g fill="#2C3891" fill-opacity="0.39" stroke="None">
<path d="
M 381.00 268.00 
C 380.98 268.05 381.84 268.66 382.00 269.00
C 383.67 268.73 387.52 269.92 387.00 267.00
C 385.17 267.41 382.08 266.10 381.00 268.00 Z"/>
</g>
<g fill="#2B3690" fill-opacity="0.73" stroke="None">
<path d="
M 255.00 276.00 
C 255.38 276.20 259.77 276.26 260.00 276.00
C 260.25 275.72 259.80 274.40 260.00 274.00
C 258.72 274.27 257.57 275.61 256.00 275.00
C 256.00 273.00 256.00 271.00 256.00 269.00
C 256.01 268.67 255.12 268.26 255.00 268.00
C 255.00 270.67 255.00 273.33 255.00 276.00 Z"/>
</g>
<g fill="#2C3792" fill-opacity="0.76" stroke="None">
<path d="
M 294.00 269.00 
C 293.40 270.86 293.79 274.79 295.00 276.00
C 294.47 273.84 295.70 271.10 295.00 269.00
C 294.57 268.70 294.47 267.55 294.00 269.00 Z"/>
</g>
<g fill="#2C3792" fill-opacity="0.88" stroke="None">
<path d="
M 328.00 276.00 
C 327.91 275.98 328.00 275.00 328.00 275.00
C 328.00 274.50 328.00 273.50 328.00 273.00
C 328.00 272.50 328.00 271.50 328.00 271.00
C 328.00 270.50 328.12 269.47 328.00 269.00
C 327.91 268.65 326.98 268.05 327.00 268.00
C 326.37 269.96 326.68 274.73 328.00 276.00 Z"/>
</g>
<g fill="#2C3792" fill-opacity="0.59" stroke="None">
<path d="
M 382.00 269.00 
C 381.84 268.66 380.98 268.05 381.00 268.00
C 379.29 273.42 382.69 278.97 388.00 275.00
C 379.72 275.16 383.72 273.76 387.00 271.00
C 384.09 271.34 383.06 271.15 382.00 269.00 Z"/>
</g>
<g fill="#000000" fill-opacity="0.00" stroke="None">
<path d="
M 260.00 274.00 
C 261.95 270.11 260.02 269.28 256.00 269.00
C 256.00 271.00 256.00 273.00 256.00 275.00
C 257.57 275.61 258.72 274.27 260.00 274.00 Z"/>
</g>
<g fill="#293691" fill-opacity="0.15" stroke="None">
<path d="
M 295.00 276.00 
C 296.49 274.74 296.37 271.03 296.00 269.00
C 296.00 269.00 295.34 269.24 295.00 269.00
C 295.70 271.10 294.47 273.84 295.00 276.00 Z"/>
</g>
<g fill="#000000" fill-opacity="0.00" stroke="None">
<path d="
M 328.00 271.00 
C 329.47 270.90 332.63 271.53 332.00 269.00
C 330.69 268.85 329.30 269.20 328.00 269.00
C 328.12 269.47 328.00 270.50 328.00 271.00 Z"/>
</g>
<g fill="#2D3891" fill-opacity="0.51" stroke="None">
<path d="
M 274.00 272.00 
C 274.43 273.60 272.63 274.46 273.00 276.00
C 275.87 273.51 278.69 274.11 282.00 276.00
C 282.01 270.40 277.96 272.23 276.00 272.00
C 275.33 271.92 275.18 270.68 274.00 272.00 Z"/>
</g>
<g fill="#2D3891" fill-opacity="0.55" stroke="None">
<path d="
M 333.00 273.00 
C 331.94 275.17 330.24 275.10 328.00 275.00
C 328.00 275.00 327.91 275.98 328.00 276.00
C 329.83 276.36 338.29 275.30 334.00 272.00
C 333.92 272.25 333.16 272.66 333.00 273.00 Z"/>
</g>
<g fill="#000000" fill-opacity="0.00" stroke="None">
<path d="
M 328.00 275.00 
C 330.24 275.10 331.94 275.17 333.00 273.00
C 332.03 273.44 328.67 272.25 328.00 273.00
C 328.00 273.50 328.00 274.50 328.00 275.00 Z"/>
</g>
</svg>